<?xml version="1.0"?>
<svg xmlns="http://www.w3.org/2000/svg" height="512px" viewBox="-10 0 511 512" width="512px" class=""><g><g><g fill-rule="evenodd"><path d="m400.863281 394.398438h-353.707031c-25.117188 0-38.296875 56.453124-39.0625 73.597656 0 .792968.085938 2.496094 0 3.175781.765625 16.917969 13.636719 33.269531 39.0625 33.269531h354.21875c22.308594 0 40.054688-18.25 40.054688-40.554687v-110.070313c0 22.332032-18.257813 40.582032-40.566407 40.582032zm0 0" fill="#eceff1" data-original="#ECEFF1" class="" style="fill:#ECEFF1"/><path d="m81.230469 7.980469v426.152343h319.605469c22.308593 0 40.5625-18.253906 40.5625-40.558593l.144531-345.464844c.027343-22.300781-18.257813-40.554687-40.566407-40.554687zm0 0" fill="#f55a8e" data-original="#5EA0E2" class="" style="fill:#5EA0E2" data-old_color="#f55a8e"/><path d="m81.230469 434.132812v-426.152343c-32.542969 0-70.074219-3.9375-73.136719 42.597656v417.417969c.765625-17.144532 13.917969-33.863282 39.0625-33.863282zm0 0" fill="#fcd968" data-original="#1F2653" class="" style="fill:#1F2653" data-old_color="#fcd968"/><path d="m401.375 7.558594v426.574218c22.082031-.3125 40.023438-18.449218 40.023438-40.558593l.144531-345.464844c.027343-22.160156-18.03125-40.324219-40.167969-40.550781zm0 0" fill="#ba4583" data-original="#4591BA" class="" style="fill:#4591BA" data-old_color="#ba4583"/><path d="m47.269531 463.773438h353.707031c21.261719 0 38.835938-16.605469 40.453126-37.492188l-.027344-32.703125c0 22.105469-17.945313 40.242187-40.027344 40.554687-.167969 0-.339844 0-.539062 0h-353.679688c-25.144531 0-38.296875 16.71875-39.0625 33.863282v3.175781c.199219 4.589844 1.304688 9.125 3.289062 13.320313 5.355469-11.648438 17.375-20.71875 35.886719-20.71875zm0 0" fill="#c4cccf" data-original="#C4CCCF" class=""/><path d="m160.429688 64.917969h299.082031c13.4375 0 24.4375 10.996093 24.4375 24.429687v117.074219c0 13.429687-11 24.425781-24.4375 24.425781h-299.082031c-13.4375 0-24.4375-10.996094-24.4375-24.425781v-117.074219c0-13.433594 11-24.429687 24.4375-24.429687zm0 0" fill="#eceff1" data-original="#ECEFF1" class="" style="fill:#ECEFF1"/><path d="m451.832031 89.347656v117.074219c0 13.429687-10.972656 24.425781-24.4375 24.425781h32.117188c13.4375 0 24.4375-10.996094 24.4375-24.425781v-117.074219c0-13.433594-11-24.429687-24.4375-24.429687h-32.117188c13.464844 0 24.4375 10.996093 24.4375 24.429687zm0 0" fill="#c4cccf" data-original="#C4CCCF" class=""/><path d="m459.511719 57.359375h-10.414063v-9.238281c.015625-12.789063-4.984375-24.851563-14.085937-33.960938-9.117188-9.132812-21.207031-14.160156-34.035157-14.160156 0 0-.003906 0-.007812 0l-319.742188.425781c-2.324218 0-4.671874-.019531-7.03125-.042969-16.085937-.136718-32.722656-.28125-46.503906 5.640626-16.550781 7.113281-25.683594 21.9375-27.136718 44.058593-.011719.164063-.019532.328125-.019532.496094v417.445313c-.015625.523437-.035156 1.042968-.035156 1.566406 0 .511718.019531 1.027344.035156 1.542968v.039063c0 .015625.003906.027344.003906.039063.800782 20.53125 16.773438 40.789062 46.617188 40.789062h354.21875c26.253906 0 47.609375-21.597656 47.609375-48.144531l-.027344-70.273438.082031-155.175781h10.472657c17.640625 0 31.992187-14.347656 31.992187-31.984375v-117.074219c0-17.636718-14.351562-31.988281-31.992187-31.988281zm-385.839844-41.863281v411.078125h-26.515625c-13.292969 0-23.828125 4.078125-31.503906 10.4375v-386.179688c2.332031-33.949219 23.578125-35.621093 58.019531-35.335937zm402.71875 190.921875c0 9.304687-7.570313 16.871093-16.875 16.871093h-149.53125c-4.171875 0-7.554687 3.386719-7.554687 7.558594 0 4.175782 3.382812 7.558594 7.554687 7.558594h123.9375l-.078125 155.167969c0 18.195312-14.808594 33-33.007812 33h-158.996094c-4.175782 0-7.558594 3.382812-7.558594 7.554687 0 4.175782 3.382812 7.558594 7.558594 7.558594h158.996094c12.769531 0 24.398437-5 33.019531-13.144531l.015625 35.316406c0 18.210937-14.578125 33.023437-32.496094 33.023437h-354.21875c-21.042969 0-30.859375-12.789062-31.503906-25.90625v-2.761718c.648437-13.03125 10.570312-26.527344 31.503906-26.527344h31.589844c.777344.269531 1.609375.425781 2.480468.425781.871094 0 1.703126-.15625 2.484376-.425781h123.519531c4.171875 0 7.554687-3.382812 7.554687-7.558594 0-4.171875-3.382812-7.554687-7.554687-7.554687h-118.445313v-411.042969l312.195313-.417969c8.785156 0 17.074219 3.457031 23.335937 9.726563 6.246094 6.253906 9.679688 14.515625 9.667969 23.273437v9.246094h-273.554687c-17.640626 0-31.992188 14.351563-31.992188 31.988281v117.070313c0 17.636719 14.351562 31.988281 31.992188 31.988281h114.917968c4.171875 0 7.554688-3.382812 7.554688-7.558594 0-4.171875-3.382813-7.558594-7.554688-7.558594h-114.917968c-9.308594 0-16.878907-7.566406-16.878907-16.871093v-117.070313c0-9.304687 7.570313-16.871094 16.878907-16.871094h299.082031c9.308593 0 16.878906 7.566407 16.878906 16.871094zm0 0" data-original="#000000" class="active-path" style="fill:#000000"/><path d="m321.636719 118.367188c-7.3125 0-13.691407 2.378906-18.738281 7.707031-5.1875 5.472656-7.3125 12.246093-7.3125 19.667969 0 7.539062 2.125 14.398437 7.34375 19.898437 5.015624 5.328125 11.335937 7.792969 18.648437 7.792969 7.34375 0 13.664063-2.46875 18.683594-7.878906 5.101562-5.472657 7.285156-12.1875 7.285156-19.640626 0-7.484374-2.128906-14.257812-7.285156-19.753906-5.019531-5.328125-11.3125-7.792968-18.625-7.792968zm8.558593 38.742187c-2.210937 2.777344-5.074218 4.109375-8.617187 4.109375-3.570313 0-6.460937-1.304688-8.671875-4.082031-2.523438-3.203125-3.316406-7.3125-3.316406-11.308594 0-3.96875.847656-7.90625 3.429687-11.050781 2.210938-2.691406 5.042969-4.054688 8.558594-4.054688 3.542969 0 6.4375 1.304688 8.648437 4.082032 2.519532 3.171874 3.34375 7.199218 3.34375 11.164062 0 3.996094-.851562 7.9375-3.375 11.140625zm0 0" data-original="#000000" class="active-path" style="fill:#000000"/><path d="m196.714844 162.660156c-1.277344-1.21875-2.75-1.867187-4.480469-1.867187h-12.046875v-8.136719h10.402344c1.757812 0 3.34375-.566406 4.59375-1.839844 1.1875-1.191406 1.8125-2.664062 1.8125-4.335937 0-1.703125-.652344-3.144531-1.84375-4.335938-1.246094-1.246093-2.804688-1.871093-4.5625-1.871093h-10.488282v-7.792969h11.792969c1.671875 0 3.117188-.652344 4.308594-1.839844l.027344-.03125.027343-.027344c1.105469-1.246093 1.730469-2.71875 1.730469-4.421875 0-1.671875-.597656-3.144531-1.789062-4.335937-1.160157-1.21875-2.632813-1.839844-4.308594-1.839844h-18.480469c-1.898437 0-3.515625.707031-4.820312 2.097656-1.304688 1.332031-1.984375 2.945313-1.984375 4.789063v39.476562c0 1.871094.652343 3.542969 2.015625 4.847656 1.332031 1.332032 3.003906 1.953126 4.875 1.953126h18.738281c1.726563 0 3.257813-.566407 4.503906-1.753907 1.191407-1.191406 1.816407-2.664062 1.816407-4.335937 0-.851563-.144532-1.703125-.511719-2.496094-.339844-.710938-.792969-1.363281-1.328125-1.902344zm0 0" data-original="#000000" class="active-path" style="fill:#000000"/><path d="m439.246094 144.921875 14.230468-13.945313c1.246094-1.359374 1.984376-2.972656 1.984376-4.816406 0-1.8125-.679688-3.402344-1.957032-4.703125-1.304687-1.304687-2.890625-1.957031-4.734375-1.957031-2.039062 0-3.742187 1.050781-5.128906 2.496094l-15.59375 16.492187v-12.328125c0-1.84375-.679687-3.429687-1.984375-4.734375-1.300781-1.304687-2.917969-2.011719-4.761719-2.011719-1.871093 0-3.484375.679688-4.816406 2.011719-1.304687 1.277344-2.015625 2.835938-2.015625 4.675781v40.8125c0 1.898438.710938 3.570313 2.097656 4.902344 1.304688 1.273438 2.894532 1.984375 4.734375 1.984375 1.898438 0 3.515625-.707031 4.820313-2.097656 1.246094-1.332031 1.929687-2.945313 1.929687-4.789063v-15.019531l17.660157 19.328125c1.445312 1.5 3.230468 2.492188 5.328124 2.492188 1.871094 0 3.484376-.625 4.761719-1.953125 1.304688-1.332031 1.925781-3.003907 1.925781-4.847657 0-1.757812-.707031-3.285156-1.898437-4.589843zm0 0" data-original="#000000" class="active-path" style="fill:#000000"/><path d="m379.71875 119.074219c-7.34375 0-13.722656 2.382812-18.765625 7.707031-5.160156 5.472656-7.3125 12.246094-7.3125 19.699219 0 7.507812 2.152344 14.367187 7.339844 19.863281 5.046875 5.328125 11.339843 7.796875 18.652343 7.796875 7.34375 0 13.691407-2.46875 18.679688-7.878906 5.132812-5.472657 7.316406-12.1875 7.316406-19.640625 0-7.484375-2.15625-14.257813-7.316406-19.753906-4.988281-5.328126-11.308594-7.792969-18.59375-7.792969zm8.53125 38.742187c-2.210938 2.777344-5.074219 4.109375-8.617188 4.109375-3.542968 0-6.433593-1.304687-8.644531-4.082031-2.550781-3.203125-3.347656-7.3125-3.347656-11.308594 0-3.96875.851563-7.90625 3.429687-11.023437 2.242188-2.722657 5.046876-4.082031 8.5625-4.082031 3.542969 0 6.433594 1.304687 8.675782 4.082031 2.492187 3.175781 3.316406 7.199219 3.316406 11.167969-.003906 3.996093-.851562 7.933593-3.375 11.136718zm0 0" data-original="#000000" class="active-path" style="fill:#000000"/><path d="m280.960938 144.070312c.679687-.425781 1.300781-.933593 1.8125-1.472656.90625-.964844 1.53125-2.210937 1.984374-3.457031.539063-1.53125.765626-3.117187.765626-4.734375 0-4.164062-1.417969-7.765625-4.566407-10.511719-3.371093-2.921875-7.625-3.914062-11.988281-3.914062h-12.21875c-1.871094 0-3.515625.625-4.875 1.929687-1.390625 1.304688-2.015625 3.003906-2.015625 4.902344v39.390625c0 1.929687.625 3.65625 2.015625 4.988281 1.386719 1.363282 3.117188 1.957032 5.015625 1.957032h15.761719c4.648437 0 8.902344-1.332032 12.300781-4.5625 3.289063-3.148438 4.820313-7.085938 4.820313-11.621094 0-6.601563-3.089844-10.851563-8.8125-12.894532zm-17.519532-11.929687h4.535156c1.1875 0 2.179688.367187 3.03125 1.1875.792969.796875 1.21875 1.675781 1.21875 2.777344 0 1.105469-.453124 1.984375-1.277343 2.722656-.90625.792969-1.925781 1.160156-3.117188 1.160156h-4.394531v-7.847656zm11.195313 27.546875c-.964844.90625-2.070313 1.332031-3.402344 1.332031h-7.878906v-9.070312h7.964843c1.304688 0 2.378907.453125 3.289063 1.359375.933594.9375 1.386719 2.011718 1.386719 3.316406 0 1.21875-.480469 2.210938-1.359375 3.0625zm0 0" data-original="#000000" class="active-path" style="fill:#000000"/><path d="m228.632812 141.691406h-9.15625c-3.347656 0-6.09375 2.75-6.09375 6.121094 0 3.34375 2.75 6.09375 6.09375 6.09375h9.15625c3.34375 0 6.09375-2.75 6.09375-6.09375 0-3.371094-2.75-6.121094-6.09375-6.121094zm0 0" data-original="#000000" class="active-path" style="fill:#000000"/></g></g></g> </svg>
