<?xml version="1.0" encoding="utf-8"?>
<!-- Generator: Adobe Illustrator 16.0.2, SVG Export Plug-In . SVG Version: 6.00 Build 0)  -->
<!DOCTYPE svg PUBLIC "-//W3C//DTD SVG 1.1//EN" "http://www.w3.org/Graphics/SVG/1.1/DTD/svg11.dtd">
<svg version="1.1" id="Layer_1" xmlns="http://www.w3.org/2000/svg" xmlns:xlink="http://www.w3.org/1999/xlink" x="0px" y="0px"
	 width="357.143px" height="334.286px" viewBox="0 0 357.143 334.286" enable-background="new 0 0 357.143 334.286"
	 xml:space="preserve">
<g>
	<g>
		<path fill="#D7BEA0" d="M183.247,263.093h-26.803c-3.571,0-6.468,2.895-6.468,6.467v11.873h39.738v-11.872
			C189.715,265.988,186.819,263.093,183.247,263.093z"/>
		<path fill="#E6DABB" d="M180.896,263.093h-22.56c-3.572,0-6.469,2.895-6.469,6.467v11.873h35.496v-11.872
			C187.364,265.988,184.469,263.093,180.896,263.093z"/>
		<path fill="#D7BEA0" d="M171.964,267.62c6.61,0,12.715,0.75,17.648,2.02c-0.58-3.708-3.778-6.547-7.648-6.547h-24.236
			c-4.28,0-7.751,3.47-7.751,7.751v0.158C155.406,268.925,163.246,267.62,171.964,267.62z"/>
		<polygon fill="#6B4350" points="133.984,245.948 126.479,245.245 125.235,258.46 132.741,259.163 		"/>
		<polygon fill="#53313E" points="132.674,245.825 132.053,252.432 125.857,251.851 125.235,258.46 132.741,259.163 
			133.984,245.948 		"/>
		<path fill="#C54E69" d="M118.493,249.427c-0.37,10.986,0.698,11.881,2.052,11.938s2.479-0.746,2.849-11.732
			s-0.427-19.938-1.78-19.994S118.863,238.44,118.493,249.427z"/>
		<path fill="#C03754" d="M121.569,252.034c-1.221-0.051-1.985-7.342-1.854-16.828c-0.579,3.595-1.034,8.629-1.223,14.221
			c-0.37,10.986,0.698,11.881,2.052,11.938s2.479-0.746,2.849-11.732c0.036-1.08,0.059-2.132,0.073-3.166
			C122.907,249.933,122.233,252.062,121.569,252.034z"/>
		<path fill="#EDC95D" d="M115.753,247.136c-0.704-10.967-2.08-11.708-3.712-11.578c-1.631,0.13-2.898,1.082-2.195,12.048
			c0.704,10.966,2.597,19.75,4.228,19.62C115.705,267.096,116.457,258.101,115.753,247.136z"/>
		<path fill="#E1A94B" d="M115.753,247.136c-0.44-6.871-1.146-9.727-2.013-10.871c0.157,0.887,0.294,1.811,0.401,2.771
			c0.714,6.382-0.034,11.703-1.672,11.887c-0.878,0.099-1.833-1.313-2.641-3.619c0.006,0.105,0.01,0.195,0.017,0.302
			c0.704,10.966,2.597,19.75,4.228,19.62C115.705,267.096,116.457,258.101,115.753,247.136z"/>
		<path fill="#E6DABB" d="M304.855,265.81c-11.889-2.038-28.87,4.076-29.889,14.944l47.211,1.358
			C322.177,282.112,316.742,267.847,304.855,265.81z"/>
		<path fill="#F1E5CE" d="M276.885,275.474c4.061,0.433,8.98,0.346,14.236-0.383c8.805-1.221,16.244-3.906,19.98-6.872
			c-1.842-1.138-3.918-2.011-6.246-2.409C295.062,264.13,281.819,267.987,276.885,275.474z"/>
		<path fill="#D7BEA0" d="M309.175,267.175c-7.398,2.403-13.566,7.161-14.168,13.579l26.928,0.774
			C320.939,279.234,316.828,270.751,309.175,267.175z"/>
		<path fill="#59495D" d="M293.013,267.872c-6.512,2.564-11.685,7.033-12.234,12.882l2.469,0.071
			C284.179,275.266,288.02,270.833,293.013,267.872z"/>
		<polygon fill="#8C7592" points="134.777,254.242 104.974,252.563 106.757,281.349 131.721,281.349 		"/>
		<path fill="#7A627F" d="M133.407,254.165c-2.307,10.75-9.218,18.555-17.386,18.555c-3.726,0-7.188-1.627-10.072-4.413
			l0.808,13.042h24.964l3.057-27.106L133.407,254.165z"/>
		<g>
			<polygon fill="#D7BEA0" points="247.155,236.161 213.734,236.161 209.879,279.223 251.012,279.223 			"/>
			<polygon fill="#B99C7C" points="249.652,264.046 247.155,236.161 213.734,236.161 211.061,266.02 			"/>
			<path fill="#E6DABB" d="M314.367,119.188H146.523c-3.878,0-7.021,3.144-7.021,7.021v119.641c0,3.877,3.144,7.021,7.021,7.021
				h167.843c3.879,0,7.021-3.145,7.021-7.021V126.209C321.388,122.332,318.246,119.188,314.367,119.188z"/>
			<polygon fill="#F1E5CE" points="166.728,252.872 245.228,252.872 288.379,119.188 229.928,119.188 			"/>
			<path fill="#EFE3CB" d="M320.21,123.474c0.223,0.775,0.348,1.59,0.348,2.436v116.009c0,4.881-3.957,8.837-8.838,8.837H149.651
				c-4.881,0-8.838-3.956-8.838-8.837V125.91c0-0.846,0.127-1.662,0.349-2.436c-0.895,1.381-1.419,3.024-1.419,4.792v116.009
				c0,4.881,3.956,8.837,8.837,8.837h164.212c4.881,0,8.838-3.956,8.838-8.837V128.266
				C321.63,126.498,321.105,124.855,320.21,123.474z"/>
			<rect x="207.736" y="276.224" fill="#E6DABB" width="45.418" height="4.285"/>
			<path fill="#3F3030" d="M312.552,119.188H148.339c-4.881,0-8.837,3.957-8.837,8.837V231.02h181.886V128.025
				C321.388,123.145,317.431,119.188,312.552,119.188z"/>
			<polygon fill="#483939" points="252.281,231.02 288.379,119.188 229.928,119.188 177.059,231.02 			"/>
			<path fill="#5B4A49" d="M147.565,122.616h165.76c3.551,0,6.609,2.062,8.045,5.038c-0.197-4.707-4.064-8.466-8.818-8.466H148.339
				c-4.755,0-8.622,3.759-8.818,8.466C140.956,124.677,144.014,122.616,147.565,122.616z"/>
			<rect x="146.732" y="126.9" fill="#53A5C1" width="167.425" height="104.119"/>
			<rect x="148.86" y="128.591" fill="#8AC0D3" width="163.17" height="100.738"/>
			<polygon fill="#9ECADC" points="285.396,128.591 211.485,128.591 175.494,229.329 249.405,229.329 			"/>
			<path fill="#D7BEA0" d="M245.489,242.428h-30.088c-0.344,0-0.622,0.278-0.622,0.622v0.845c0,0.343,0.278,0.622,0.622,0.622
				h30.088c0.344,0,0.622-0.279,0.622-0.622v-0.845C246.111,242.706,245.833,242.428,245.489,242.428z"/>
		</g>
		<polygon fill="#F1E5CE" points="301.451,168.522 301.451,174.349 297.091,171.436 		"/>
		<path opacity="0.6" fill="#BE4543" d="M175.42,119.188h88.456c14.884,21.111,31.551,66.786,31.247,111.613h-43.933
			c5.634-58.576-20.605-95.79-20.605-95.79l3.05-2.251l-1.391-1.729c-14.255,15.673-25.638,29.137-25.638,29.137L175.42,119.188z"/>
		<path fill="#D68A6A" d="M268.936,110.677c-2.292-18.596-6.368-24.2-6.368-24.2l-30.727,22.582c0,0,9.631,14.939,17.494,15.529
			C257.197,125.177,268.936,110.677,268.936,110.677z"/>
		<polygon fill="#E6D9B7" points="246.529,126.755 271.835,107.65 278.508,117.459 253.201,136.564 		"/>
		<path fill="#59495D" d="M247.283,135.011l31.587-21.363c13.586,17.573,27.512,67.88,21.059,117.152h-43.933
			C268.902,172.225,247.283,135.011,247.283,135.011z"/>
		<path fill="#F6E5BC" d="M245.144,6.287l52.985,58.844c-23.69,15.029-80.496,73.618-80.496,73.618l-53.494-61.391
			C164.139,77.357,215.34,21.826,245.144,6.287z"/>
		<g>
			<path fill="#E6B752" d="M170.245,76.487l0.706-0.766c1.86-2.018,45.862-49.571,72.179-63.292l0.799-0.417l48.528,53.894
				l-1.162,0.737c-20.66,13.107-70.695,64.617-71.198,65.136l-0.88,0.908L170.245,76.487z M243.411,14.914
				c-24.257,13.113-64.231,55.405-70.04,61.621l45.938,52.719c6.884-7.061,49.451-50.425,69.588-63.825L243.411,14.914z"/>
		</g>
		<path opacity="0.6" fill="#BE4543" d="M175.292,82.306c0.025-0.429,0.092-0.856,0.257-1.274c-0.142-0.246-0.254-0.508-0.353-0.779
			c-0.03-0.085-0.054-0.174-0.08-0.262c-0.059-0.192-0.109-0.386-0.148-0.587c-0.021-0.104-0.038-0.208-0.054-0.314
			c-0.028-0.198-0.046-0.399-0.058-0.604c-0.006-0.104-0.016-0.205-0.017-0.31c-0.004-0.26,0.005-0.523,0.026-0.789
			c0.01-0.122,0.026-0.243,0.04-0.364c0.027-0.216,0.057-0.431,0.098-0.647c0.029-0.154,0.067-0.307,0.104-0.461
			c0.035-0.143,0.07-0.285,0.111-0.426c0.05-0.174,0.104-0.345,0.162-0.516c0.036-0.105,0.076-0.209,0.115-0.313
			c0.074-0.194,0.148-0.387,0.232-0.575c0.001,0,0.001,0,0.001-0.001c0.333-0.743,0.751-1.425,1.23-2.016
			c0.012-0.015,0.023-0.03,0.035-0.044c0.157-0.192,0.32-0.371,0.491-0.54c0.004-0.004,0.008-0.007,0.012-0.011
			c1.238-1.221,2.798-1.813,4.446-1.089c2.527-3.612,10.882,1.625,10.249,5.979c0-0.001,0.001-0.002,0.001-0.004
			c0,0.004-0.001,0.007-0.002,0.011c-0.009,0.06-0.023,0.118-0.036,0.177c-0.002,0.009-0.003,0.018-0.005,0.026c0,0,0,0-0.001-0.001
			c-0.052,0.239-0.125,0.475-0.237,0.704c0.834,0.945,1.07,2.147,0.937,3.416c0.011-0.044,0.027-0.088,0.037-0.131
			c-0.012,0.14-0.041,0.283-0.063,0.424c-0.011,0.071-0.019,0.141-0.031,0.211c-0.123,0.676-0.344,1.362-0.644,2.034
			c-0.021,0.048-0.046,0.095-0.068,0.144c-0.131,0.283-0.273,0.562-0.429,0.836c-0.041,0.074-0.083,0.146-0.126,0.22
			c-0.155,0.264-0.319,0.521-0.492,0.772c-0.037,0.053-0.071,0.107-0.108,0.16c-0.215,0.303-0.438,0.596-0.672,0.872
			c-0.009,0.011-0.019,0.02-0.027,0.031c-0.216,0.253-0.438,0.49-0.662,0.715c-0.066,0.066-0.133,0.127-0.199,0.191
			c-0.174,0.165-0.347,0.318-0.521,0.463c-0.074,0.061-0.146,0.122-0.221,0.178c-0.192,0.148-0.383,0.28-0.572,0.399
			c-0.046,0.029-0.092,0.064-0.138,0.091c-0.23,0.136-0.456,0.246-0.676,0.331c-0.056,0.021-0.107,0.032-0.162,0.05
			c-0.162,0.053-0.319,0.092-0.471,0.113c-0.066,0.009-0.131,0.012-0.195,0.015c-0.138,0.005-0.268-0.009-0.392-0.037
			c-0.055-0.012-0.11-0.019-0.162-0.038c-0.166-0.06-0.322-0.143-0.455-0.274c-0.651,0.698-1.487,1.038-2.4,1.094
			c-0.966,0.061-2.01-0.206-3.012-0.685c-0.979,1.243-1.924,2.488-2.842,3.729l-5.626-7.099
			C172.813,84.289,174.081,83.204,175.292,82.306z"/>
		<path fill="#E6B752" d="M175.652,79.752l4.84,5.604c-13.501,13.755-22.162,28.275-22.162,28.275l-1.019-8.661h-8.661
			C148.65,104.971,164.953,85.356,175.652,79.752z"/>
		<path fill="#DD9D46" d="M169.712,83.747c2.071-1.633,4.091-3.026,5.94-3.995l4.84,5.604c-2.727,2.778-5.251,5.585-7.552,8.299
			C172.253,89.973,171.144,86.617,169.712,83.747z"/>
		<g>
			<path fill="#C7525A" d="M191.88,76.536c3.517,4.153-4.989,12.296-7.283,10.148c-3.72,3.292-12.309-2.738-10.147-7.283
				c-2.594-4.222,2.241-12.536,7.282-10.148C184.842,65.525,194.422,72.4,191.88,76.536z"/>
			<path fill="#C7525A" d="M192.169,75.881c-0.01-0.013-0.015-0.028-0.025-0.041c0.033-0.053,0.056-0.108,0.084-0.162
				C192.212,75.747,192.189,75.813,192.169,75.881z"/>
			<path fill="#C7525A" d="M182.415,68.928c-0.084-0.039-0.167-0.052-0.251-0.085c0.276-0.218,0.584-0.379,0.918-0.486
				C182.837,68.506,182.611,68.694,182.415,68.928z"/>
			<path fill="#C54953" d="M178.772,69.008c-3.14,1.557-5.191,6.625-3.361,9.583c-2.079,4.325,6.154,10.049,9.729,6.913
				c1.596,1.481,6.324-2.202,7.516-5.842c-0.663,4.08-6.264,8.704-8.059,7.022c-3.72,3.292-12.309-2.738-10.147-7.283
				C172.378,76.03,175.047,70.064,178.772,69.008z"/>
		</g>
		<g>
			<circle fill="#482935" cx="178.846" cy="271.838" r="5.519"/>
			<circle fill="#6B4350" cx="178.847" cy="271.838" r="5.004"/>
			<path fill="#482935" d="M178.847,269.226c2.264,0,4.262,0.912,5.488,2.307c-0.162-2.902-2.545-5.213-5.488-5.213
				s-5.327,2.311-5.488,5.213C174.585,270.138,176.583,269.226,178.847,269.226z"/>
			<ellipse fill="#482935" cx="179.017" cy="272.722" rx="1.868" ry="2.063"/>
			<circle fill="#E6DABB" cx="179.017" cy="271.838" r="1.868"/>
		</g>
		<g>
			<circle fill="#482935" cx="160.717" cy="271.838" r="5.519"/>
			<circle fill="#6B4350" cx="160.718" cy="271.838" r="5.004"/>
			<path fill="#482935" d="M160.718,269.226c2.263,0,4.262,0.912,5.488,2.307c-0.162-2.902-2.545-5.213-5.488-5.213
				s-5.327,2.311-5.488,5.213C156.456,270.138,158.454,269.226,160.718,269.226z"/>
			<ellipse fill="#482935" cx="160.888" cy="272.722" rx="1.868" ry="2.063"/>
			<circle fill="#E6DABB" cx="160.888" cy="271.838" r="1.868"/>
		</g>
		<path fill="#483A4B" d="M247.283,135.011l8.035-5.434c3.969,7.781,20.896,45.326,10.22,101.224h-9.542
			C268.902,172.225,247.283,135.011,247.283,135.011z"/>
		<path fill="#483A4B" d="M278.424,113.951l0.446-0.302c13.586,17.573,28.303,67.88,21.85,117.152h-3.52
			C302.671,181.785,291.269,132.661,278.424,113.951z"/>
		<g opacity="0.34">
			<path fill="#E6D9B7" d="M276.076,115.538l0.542-0.367c13.217,18.808,26.221,67.703,19.944,115.629h-1.184
				C300.958,183.791,288.985,136.349,276.076,115.538z"/>
			<path fill="#E6D9B7" d="M273.131,117.53l0.643-0.435c12.756,20.056,24.732,67.334,18.658,113.705h-1.184
				C296.658,185.233,285.573,139.263,273.131,117.53z"/>
			<path fill="#E6D9B7" d="M270.122,119.565l0.724-0.49c12.289,21.059,23.337,66.816,17.456,111.725h-1.186
				C292.363,186.608,282.096,142.04,270.122,119.565z"/>
			<path fill="#E6D9B7" d="M267.058,121.638l0.792-0.536c11.821,21.865,22.021,66.176,16.321,109.699h-1.185
				C288.076,187.927,278.563,144.702,267.058,121.638z"/>
			<path fill="#E6D9B7" d="M263.945,123.743l0.85-0.575c11.352,22.505,20.771,65.438,15.245,107.633h-1.185
				C283.795,189.2,274.984,147.268,263.945,123.743z"/>
			<path fill="#E6D9B7" d="M260.79,125.876l0.899-0.608c10.883,23.006,19.579,64.616,14.22,105.533h-1.185
				C279.518,190.433,271.363,149.748,260.79,125.876z"/>
			<path fill="#E6D9B7" d="M257.597,128.037l0.943-0.638c10.415,23.385,18.436,63.722,13.239,103.402h-1.186
				C275.244,191.631,267.707,152.154,257.597,128.037z"/>
			<path fill="#E6D9B7" d="M254.354,130.229l0.995-0.673c9.949,23.658,17.339,62.767,12.299,101.245h-1.185
				C270.977,192.791,264.011,154.501,254.354,130.229z"/>
			<path fill="#E6D9B7" d="M251.08,132.443l1.029-0.695c9.491,23.833,16.296,61.733,11.408,99.053h-1.185
				C266.711,193.925,260.284,156.792,251.08,132.443z"/>
		</g>
		<ellipse fill="#483A4B" cx="260.586" cy="140.59" rx="5.201" ry="5.661"/>
		<ellipse fill="#483A4B" cx="264.666" cy="154.563" rx="5.202" ry="5.66"/>
		<ellipse fill="#E6DABB" cx="261.402" cy="139.264" rx="2.697" ry="2.935"/>
		<ellipse fill="#E6DABB" cx="265.838" cy="153.95" rx="2.697" ry="2.934"/>
		<circle fill="#BF343D" cx="182.843" cy="77.585" r="5.89"/>
		<ellipse fill="#C7525A" cx="183.054" cy="77.355" rx="5.029" ry="4.781"/>
		<polygon fill="#A38BA8" points="105.108,254.742 134.492,256.774 134.777,254.242 104.974,252.563 		"/>
		<path opacity="0.1" fill="#BE4543" d="M264.359,79.65c0-29.468-10.807-55.165-26.838-68.851c2.654-1.731,5.209-3.255,7.622-4.513
			l52.985,58.844c-8.611,5.463-21.598,16.682-34.641,28.75C264.05,89.261,264.359,84.511,264.359,79.65z"/>
		<polygon fill="#B99C7C" points="224.583,45.461 250.054,72.183 248.01,74.021 222.539,47.298 		"/>
		<polygon fill="#B99C7C" points="220.562,49.208 246.032,75.93 243.988,77.767 218.518,51.045 		"/>
		<polygon fill="#B99C7C" points="218.072,62.243 236.728,82.374 234.574,84.081 215.919,63.95 		"/>
		<polygon fill="#B99C7C" points="229.903,65.71 241.42,78.498 239.266,80.205 227.75,67.417 		"/>
		<polygon fill="#B99C7C" points="194.518,62.959 204.113,73.831 202.441,74.914 192.846,64.042 		"/>
		<path fill="#E2AD84" d="M248.155,112.793c-4.521-11.99,2.358-22.801,2.358-22.801l-3.734-7.273c0,0-6.526,9.461-15.332,4.324
			c-2.358-1.376-3.342-4.128-3.342-4.128s18.87-16.118,21.032-15.528c2.163,0.589,12.777,15.528,14.939,20.246
			s2.771,8.022,2.752,10.811C266.734,111.887,259.582,117.419,248.155,112.793z"/>
		<g>
			<path fill="#C6515E" d="M233.825,30.975c0.04-0.017,0.061-0.036,0.09-0.062c0.063-0.053,0.137-0.135,0.29-0.27
				c0.225-0.197,1.788-1.614,2.495-2.232c0.688-0.599,1.63-1.402,2.071-1.788c0.441-0.384,1.27-1.196,1.556-1.447
				c0.286-0.231,0.438-0.347,0.519-0.253c0.01,0.01,0.019,0.021,0.027,0.031c0.053,0.061,0.059,0.128,0.131,0.211
				c0.08,0.093,0.288,0.29,0.405,0.424c0.115,0.132,0.231,0.285,0.338,0.407c0.395,0.452,0.643,0.778,0.854,1.082
				c0.192,0.284,0.646,0.72,0.642,2.331c-0.013,1.601-1.112,2.721-2.016,3.509c-0.882,0.769-2.74,1.579-3.887,1.26
				c-1.155-0.331-2.4-1.594-2.643-1.87l-0.912-1.047C233.643,31.097,233.726,31.007,233.825,30.975z M239.369,29.048
				c-0.615,0.537-1.074,1.046-1.516,1.432c-0.216,0.187-0.811,0.687-1.333,1.143c-0.316,0.259-0.646,0.545-0.993,0.85
				c0.389,0.507,0.857,0.858,1.384,1.069c0.892,0.359,2.244,0.336,3.896-1.104c1.651-1.44,1.879-2.794,1.713-3.751
				c-0.105-0.577-0.359-1.096-0.77-1.586l-0.969,0.773C240.252,28.279,239.666,28.788,239.369,29.048z"/>
			<path fill="#C6515E" d="M245.561,30.97c0.327-0.287,0.48-0.257,0.578-0.145c0.019,0.021,0.045,0.051,0.063,0.091
				c0.142,0.185,0.468,0.496,0.696,0.82c0.132,0.192,0.125,0.287,0.032,0.367c-0.062,0.055-0.151,0.096-0.252,0.167
				c-0.263,0.174-0.921,0.602-1.903,1.442c-0.275,0.223-0.563,0.472-0.83,0.705c-0.728,0.636-1.366,1.228-1.541,1.38
				c-0.184,0.162-0.804,0.757-1.173,1.079c-0.113,0.098-0.196,0.169-0.245,0.194c-0.05,0.026-0.143,0.107-0.245,0.196
				c-0.287,0.25-0.701,0.647-0.854,0.781c-0.186,0.181-0.338,0.026-0.463-0.137l-0.813-0.934c-0.216-0.226-0.063-0.36,0.104-0.524
				c0.138-0.173,0.566-0.385,0.926-0.698c0.38-0.332,2.279-1.755,2.557-1.997c0.268-0.233,1.729-1.436,1.975-1.65
				c0.123-0.107,0.368-0.302,0.573-0.461l0.386-0.302L245.561,30.97z"/>
			<path fill="#C6515E" d="M248.264,33.51c0.224,0.256,0.872,0.793,1.275,1.255c1.197,1.374,1.967,2.255,1.825,3.192
				c-0.097,0.573-0.142,1.225-0.827,1.825c-1.242,1.082-2.625,0.717-3.675,0.114c-0.63-0.37-1.242-0.863-1.816-1.502l-1.136,0.956
				l-1.464,1.242c-0.257,0.223-0.417,0.144-0.524,0.02c-0.07-0.081-0.121-0.18-0.175-0.242c-0.143-0.164-0.588-0.591-0.731-0.756
				c-0.143-0.163-0.036-0.311,0.159-0.48c0.185-0.162,1.708-1.417,2.252-1.892l2.81-2.45c0.154-0.135,0.543-0.456,0.929-0.737
				l0.714-0.55C248.115,33.298,248.147,33.376,248.264,33.51z M246.29,38.682c0.396,0.392,0.906,0.832,1.337,1.016
				c0.639,0.275,1.202,0.217,1.879-0.373c0.227-0.197,0.475-0.45,0.738-0.79c0.518-0.648,0.201-1.51-0.254-2.195
				c-0.148-0.234-0.325-0.457-0.53-0.692c-0.153-0.175-0.324-0.35-0.505-0.536l-3.367,2.827
				C245.812,38.215,246.045,38.462,246.29,38.682z"/>
			<path fill="#C6515E" d="M250.556,50.284c-0.021,0.018-0.031,0.046-0.041,0.055c-0.073,0.062-0.146-0.001-0.288-0.165
				c-0.171-0.195-1.419-1.689-1.732-2.049c-0.26-0.297-1.162-1.207-1.52-1.618c-0.072-0.082-0.116-0.153-0.144-0.184
				c-0.042-0.07-0.113-0.153-0.194-0.245c-0.224-0.256-0.549-0.587-0.7-0.761c-0.197-0.227-0.08-0.237,0.114-0.408
				c0.164-0.144,1.655-1.333,1.89-1.54c0.206-0.179,0.858-0.839,1.197-1.134c-0.492,0.429,1.811-1.362,2.108-1.62l1.15-1.021
				c0.091-0.081,0.495-0.468,0.638-0.593l0.011-0.009c0.123-0.107,0.214,0.101,0.294,0.193c0.081,0.092,0.125,0.164,0.33,0.399
				c0.037,0.041,0.063,0.072,0.08,0.091c0.036,0.042,0.044,0.071-0.027,0.134c-0.093,0.081-1.919,1.548-2.216,1.809l-1.476,1.269
				c-0.165,0.142-0.63,0.582-0.938,0.85c-0.124,0.108-0.216,0.188-0.275,0.224c-0.101,0.07-0.144,0.125-0.184,0.162
				c-0.031,0.025-0.042,0.034-0.044,0.052l0.195,0.266c0.124,0.162,0.284,0.367,0.463,0.553c0.323,0.369,1.345,1.499,1.676,1.879
				c0.341,0.39,1.186,1.442,1.32,1.596c0.069,0.101,0.067,0.14,0.035,0.166c-0.029,0.026-0.089,0.042-0.131,0.078l-0.471,0.412
				C251.451,49.322,250.669,50.185,250.556,50.284z"/>
			<path fill="#C6515E" d="M259.477,53.366c-0.698,0.608-3.935,3.09-6.342,0.33c-1.208-1.385-0.813-2.921-0.131-4.148
				c0.405-0.715,0.955-1.41,1.677-2.096c1.847-1.609,4.663-1.754,5.836-0.41c0.491,0.564,0.941,1.038,1.018,1.603
				C261.813,50.806,260.02,52.892,259.477,53.366z M258.735,52.515c1.671-1.458,2.428-3.51,1.363-4.731
				c-0.331-0.38-0.551-0.694-1.119-0.703c-0.557-0.037-2.229-0.277-3.839,1.128c-1.611,1.404-2.81,3.406-1.477,4.934
				C255.007,54.683,257.053,53.983,258.735,52.515z"/>
			<path fill="#C6515E" d="M261.064,54.897c-0.35,0.304-1.608,1.385-2.068,1.73c-0.152,0.115-0.368,0.303-0.593,0.5
				c-0.442,0.385-0.936,0.833-1.027,0.915c-0.011,0.008-0.021,0.017-0.031,0.026c-0.123,0.107-0.218,0.103-0.289,0.001
				c-0.04-0.11-0.213-0.266-0.266-0.347c-0.036-0.041-0.024-0.07,0.027-0.114c0.041-0.036,0.112-0.079,0.193-0.151
				c0.216-0.188,2.541-2.307,3.086-2.78c0.532-0.465,1.912-1.615,2.299-1.897c0.386-0.282,1.244-0.977,1.459-1.164
				c0.011-0.009,0.031-0.027,0.041-0.037c0.195-0.169,0.218-0.082,0.271,0c0.019,0.021,0.045,0.052,0.072,0.083
				c0.063,0.072,0.144,0.165,0.233,0.247c0.099,0.113,0.059,0.274-0.119,0.465c-0.331,0.345-0.659,0.9-0.953,1.393
				c-0.284,0.481-1.623,3.004-1.896,3.582c-0.154,0.3-0.449,0.81-0.723,1.263l-0.5,0.836l0.353-0.073l0.813-0.206
				c0.631-0.167,2.775-0.649,3.563-0.905c0.79-0.253,1.921-0.552,2.365-0.705c0.426-0.173,1.481-0.642,1.616-0.487
				c0.053,0.061-0.021,0.161-0.166,0.287c-0.215,0.187-0.579,0.433-0.915,0.689c-0.56,0.436-1.513,1.268-1.995,1.688
				c-0.472,0.411-1.938,1.653-2.363,1.971l-1.682,1.448c-0.01,0.009-0.021,0.018-0.031,0.026c-0.071,0.063-0.138,0.049-0.2-0.023
				c-0.072-0.083-0.242-0.277-0.304-0.368c-0.025-0.05-0.015-0.079,0.036-0.124c0.042-0.035,0.112-0.08,0.185-0.141
				c0.184-0.162,2.283-1.938,2.832-2.345c0.256-0.205,0.688-0.58,1.046-0.894c0.216-0.188,0.431-0.375,0.647-0.581
				c-0.245,0.049-0.479,0.092-0.695,0.154c-0.392,0.07-0.815,0.205-1.108,0.261c-0.549,0.137-2.212,0.592-2.683,0.714
				c-0.498,0.091-2.081,0.514-2.307,0.566c-0.215,0.063-0.517,0.089-0.598-0.003c-0.098-0.112-0.025-0.174,0.083-0.36
				c0.098-0.176,0.831-1.449,1.022-1.85c0.192-0.402,0.853-1.737,1.143-2.171c0.133-0.24,0.436-0.722,0.697-1.167
				c0.153-0.26,0.317-0.548,0.49-0.825l-0.397,0.31C261.505,54.512,261.238,54.744,261.064,54.897z"/>
			<path fill="#C6515E" d="M271.779,59.976c0.139-0.048,0.203-0.014,0.195,0.08c0.012,0.117-0.083,0.236-0.171,0.385
				c-0.116,0.156-0.573,1.206-0.756,1.617c-0.185,0.432-0.429,0.896-0.713,1.398c-0.283,0.482-0.884,1.927-1.188,2.571
				c-0.284,0.628-0.823,2.018-0.975,2.404c-0.15,0.365-0.464,1.001-0.503,1.287c-0.034,0.085-0.059,0.141-0.089,0.168
				c-0.072,0.062-0.163-0.021-0.243-0.113l-0.644-0.739c-0.072-0.083,0.068-0.294,0.159-0.501c0.082-0.215,0.589-1.126,0.708-1.321
				c0.109-0.186,0.259-0.552,0.36-0.767c0.131-0.203,0.116-0.282,0.044-0.364c-0.063-0.072-0.226-0.218-0.389-0.383
				c-0.173-0.136-0.716-0.801-0.997-1.061c-0.091-0.083-0.199-0.207-0.297-0.319c-0.215-0.248-0.419-0.501-0.464-0.552
				c-0.079-0.092-0.201-0.004-0.341,0.063c-0.121,0.069-0.911,0.468-1.132,0.607l-0.54,0.272l-0.368,0.177
				c-0.19,0.094-0.25,0.108-0.313,0.036l-0.528-0.605c-0.035-0.042-0.034-0.061-0.003-0.086c0.03-0.027,0.1-0.052,0.18-0.084
				c0.128-0.039,0.166-0.036,0.516-0.196c0.349-0.159,1.552-0.705,2.055-0.999c0.533-0.321,1.239-0.609,1.654-0.775
				c0.411-0.212,0.619-0.304,1.218-0.592c0.599-0.286,1.215-0.574,1.682-0.784l1.045-0.458
				C271.332,60.147,271.63,60.033,271.779,59.976z M268.968,64.27c0.021-0.018,0.032-0.047,0.055-0.104
				c0.061-0.18,0.521-1.141,0.729-1.504c0.203-0.409,0.398-0.725,0.421-0.8c0.092-0.205,0.145-0.271,0.1-0.322
				c-0.035-0.04-0.256,0.1-0.497,0.218c-0.208,0.092-0.895,0.4-1.134,0.52c-0.261,0.137-0.676,0.282-0.875,0.365
				c-0.09,0.042-0.149,0.076-0.191,0.111c-0.04,0.037-0.043,0.076,0.02,0.147c0.107,0.124,0.934,1.028,1.115,1.175
				C268.856,64.204,268.916,64.314,268.968,64.27z"/>
		</g>
	</g>
	<g>
		<path fill="#668AB4" d="M100.088,122.088c-5.806,9.104-8.805,18.905-5.704,32.881c3.076,4.273,14.26,15.267,18.118,14.596
			s11.744-10.736,11.744-10.736C120.052,155.306,109.818,132.322,100.088,122.088z"/>
		<path fill="#4A729A" d="M101.951,144.396c-2.7-5.65-4.479-11.213-5.296-16.04c-3.401,7.442-4.678,15.769-2.271,26.613
			c3.076,4.273,14.26,15.267,18.118,14.596c1.687-0.293,4.143-2.381,6.373-4.64C113.475,162.427,106.865,154.683,101.951,144.396z"
			/>
		<g>
			<path fill="#DBBEA7" d="M27.831,205.297H96.97c12.235,0,15.752,47.326,3.518,47.326H31.349
				C37.594,246.252,36.73,212.806,27.831,205.297z"/>
			<path fill="#4E3239" d="M101.139,250.229c-14.498-13.961-2.133-41.123-2.133-41.123s7.533,11.296,6.965,21.957
				C105.402,241.726,101.139,250.229,101.139,250.229z"/>
			<path fill="#F8EBD1" d="M76.976,239.19c0-7.145-29.277-14.5-42.561-17.815c1.445,8.929,1.26,19.228-0.467,25.748
				C33.613,248.39,76.976,246.628,76.976,239.19z"/>
			<path fill="#E3AE54" d="M92.715,202.963h96.383c5.974,0,8.085,51.994,2.112,51.994H94.827
				C102.55,254.957,100.438,202.963,92.715,202.963z"/>
			<path fill="#D58645" d="M27.085,202.963h76.752l0.692,4.927H27.777c-1.024,0-2.009-1.103-2.2-2.463l0,0
				C25.386,204.065,26.061,202.963,27.085,202.963z"/>
			<path fill="#D58645" d="M28.746,250.678h76.461l0.741,4.279H29.487c-1.024,0-2.02-0.958-2.225-2.14l0,0
				C27.059,251.636,27.723,250.678,28.746,250.678z"/>
			<path fill="#EAC16A" d="M189.098,202.963H92.715c2.16,0,3.882,4.069,5.071,9.929c13.411,4.988,32.424,9.155,53.726,11.279
				c15.788,1.574,30.569,1.801,42.918,0.9C193.69,213.49,191.785,202.963,189.098,202.963z"/>
			<path fill="#D58645" d="M94.827,254.957h10.711c3.572-11.304,2.379-40.69-2.112-51.994H92.715
				C100.438,202.963,102.55,254.957,94.827,254.957z"/>
			<path fill="#F4E1BC" d="M112.92,248.99h8.253c2.753-8.71,1.833-31.352-1.627-40.061h-8.253
				C117.244,208.93,118.871,248.99,112.92,248.99z"/>
			<path fill="#F4E1BC" d="M178.491,248.99h8.252c2.753-8.71,1.833-31.352-1.627-40.061h-8.252
				C182.814,208.93,184.441,248.99,178.491,248.99z"/>
		</g>
		<polygon fill="#D58645" points="193.531,251.396 99.155,251.21 98.479,254.56 192.854,254.745 		"/>
		<g>
			<path fill="#C54E5D" d="M103.927,254.621h100.63c6.235,0,3.465,26.014-2.771,26.014H101.156
				C109.22,280.635,111.99,254.621,103.927,254.621z"/>
			<path fill="#AB3449" d="M101.156,280.635h12.759c5.183-4.828,6.866-21.186,2.677-26.014h-12.665
				C111.99,254.621,109.22,280.635,101.156,280.635z"/>
			<path fill="#E6DABB" d="M35.63,257.511l68.329,0.313c12.092,0.056,9.994,19.938-2.098,19.883l-68.328-0.313
				C40.456,274.748,43.541,260.704,35.63,257.511z"/>
			<path fill="#4E3239" d="M107.727,276.002c-2.324-6.916,0.519-17.149,0.519-17.149s5.685,3.695,4.071,10.563
				C111.38,273.403,107.727,276.002,107.727,276.002z"/>
			<path fill="#F8EBD1" d="M87.426,267.097H40.23c-0.262,2.654-1.27,5.344-2.806,7.391H85.42
				C97.512,274.487,99.518,267.097,87.426,267.097z"/>
			<path fill="#AB3449" d="M32.321,254.621h83.217l-0.488,4.591H31.832c-1.068,0-1.825-1.027-1.69-2.295l0,0
				C30.277,255.649,31.253,254.621,32.321,254.621z"/>
			<path fill="#AB3449" d="M30.04,276.044h83.217l-0.489,4.591H29.551c-1.068,0-1.826-1.028-1.69-2.296l0,0
				C27.995,277.071,28.971,276.044,30.04,276.044z"/>
			<path fill="#C7556E" d="M204.557,254.621h-80.91c2.793,6.419,23.298,12.825,48.513,14.818
				c13.834,1.093,26.434,0.646,35.584-0.954C208.608,261.709,207.812,254.621,204.557,254.621z"/>
			<path fill="#F8EBD1" d="M197.917,260.069h-62.042c1.974,3.281,0.812,11.836-2.054,15.117h62.02
				C200.514,275.187,202.591,260.069,197.917,260.069z"/>
		</g>
		<path fill="#668AB4" d="M100.474,122.525c-1.573-2.672-8.551-5.108-14.471-6.641c-5.921-1.533-19.455,5.449-19.455,5.449
			c-20.557,30.919-12.358,66.152-0.185,77.824c2.946,2.824,6.473,4.54,9.904,2.588l34.489-19.618
			C84.066,160.501,109.24,137.424,100.474,122.525z"/>
		<path fill="#4A729A" d="M72.617,129.322c2.653-9.097-6.069-7.989-6.069-7.989c-24.175,35.308-13.232,67.365-1.06,79.037
			c2.947,2.826,7.348,3.328,10.779,1.375l11.15-6.342C74.278,181.954,57.456,165.045,72.617,129.322z"/>
		<path fill="#D58645" d="M132.8,253.649l8.818-4.318c0,0-6.913-1.5-8.993-0.539C130.546,249.753,132.8,253.649,132.8,253.649z"/>
		<path fill="#D58645" d="M151.94,248.628l8.818-4.318c0,0-6.913-1.5-8.993-0.539C149.687,244.731,151.94,248.628,151.94,248.628z"
			/>
		<polygon fill="#D58645" points="102.702,205.079 110.803,205.079 131.697,252.125 132.976,252.125 127.148,211.333 
			151.027,245.444 152.732,245.444 135.25,198.683 102.133,201.667 		"/>
		<path fill="#6E4B4E" d="M143.005,186.249c-2.464-3.117-34.885-6.012-34.885-6.012s-22.579-2.896-24.551,22.27l48.971-0.223
			l38.164,41.868l1.599,0.445C172.303,244.598,145.469,189.367,143.005,186.249z"/>
		<path fill="#5F3D41" d="M153.237,218.441c-8.66-15.472-11.739-26.584-6.877-24.819c0.285,0.104,0.593,0.253,0.918,0.438
			c-2.177-4.225-3.759-7.158-4.273-7.811c-2.464-3.117-34.885-6.013-34.885-6.013s-22.579-2.896-24.551,22.271l48.971-0.223
			l38.164,41.868l0.51,0.142C165.872,238.494,159.039,228.808,153.237,218.441z"/>
		<path fill="#6E4B4E" d="M126.479,190.245c-2.237-3.131-29.462-10.75-29.462-10.75s-22.143-1.393-28.17,19.004
			c-0.688,2.33,1.094,4.665,3.523,4.653l38.689-0.202l33.143,45.031l1.565,0.447C145.768,248.429,128.715,193.378,126.479,190.245z"
			/>
		<path fill="#5F3D41" d="M145.289,246.732c-3.888-5.753-23.399-48.192-36.476-49.968c-10.189-1.385-17.606-4.977-16.416-7.818
			c1.189-2.841,10.877-4.414,20.964-2.416c4.522,0.896,11.364,2.809,13.503,4.478c-0.157-0.362-0.287-0.624-0.386-0.763
			c-2.237-3.131-29.462-10.75-29.462-10.75s-22.143-1.393-28.17,19.004c-0.688,2.33,1.094,4.665,3.523,4.653l38.689-0.202
			l33.143,45.031l1.565,0.447C145.768,248.429,145.597,247.821,145.289,246.732z"/>
		<path fill="#E5DCBE" d="M121.416,154.054l5.116,5.306l-11.37,12.792l-8.244-3.032c0,0,0.568-6.633,4.359-10.518
			C115.067,154.716,121.416,154.054,121.416,154.054z"/>
		<path fill="#F5ECD3" d="M121.416,154.054c0,0-6.068,0.643-9.881,4.307c1.712,2.08,4.834,4.01,8.673,5.114
			c0.744,0.214,1.481,0.384,2.206,0.519l4.118-4.634L121.416,154.054z"/>
		<path fill="#E2AD84" d="M115.841,172.201c9.891,4.426,26.811,7.007,26.811,7.007l4.958-6.961c0,0-19.216-13.224-25.293-14.783
			c-3.522-0.902-6.822,3.193-8.975,6.797C111.625,167.137,112.784,170.833,115.841,172.201z"/>
		<path fill="#D68A6A" d="M120.823,157.468l0.071-0.1c-3.586,0.369-6.795,5.344-8.582,8.732c-0.992,1.881-0.256,4.182,1.624,5.177
			c9.427,4.988,28.715,7.931,28.715,7.931l3.637-5.105c-4.596-0.813-14.671-2.79-22.157-5.688
			C119.749,166.72,118.095,161.294,120.823,157.468z"/>
		<polygon fill="#E5DCBE" points="105.512,181.924 136.381,190.2 172.394,187.739 173.064,184.496 140.742,178.792 105.288,179.239 
					"/>
		<polygon fill="#D2BD97" points="105.512,181.924 136.672,190.724 172.394,187.739 173.064,184.496 137.809,187.881 
			105.288,179.239 		"/>
		<path fill="#E5DCBE" d="M192.544,142.24c-1.469-0.43-36.904-2.83-38.343-2.4c-1.439,0.43-16.393,49.817-16.393,49.817
			l34.532-1.855C172.341,187.802,194.013,142.669,192.544,142.24z"/>
		<path fill="#EDE4CC" d="M192.544,142.24c-1.469-0.43-36.904-2.83-38.343-2.4c34.396,11.466,18.14,47.962,18.14,47.962
			S194.013,142.669,192.544,142.24z"/>
		<path fill="#668AB4" d="M60.109,142.588c3.137,21.433,25.886,34.862,25.886,34.862l15.267-15.602
			c-18.411-8.743-18.506-35.891-28.739-39.917C65.252,119.071,59.103,135.709,60.109,142.588z"/>
		<path fill="#4A729A" d="M98.897,164.265l2.364-2.416c-10.705-5.084-15.217-16.387-19.131-25.752
			C85.269,145.98,88.846,157.811,98.897,164.265z"/>
		<path fill="#4A729A" d="M68.724,136.638c-0.866-3.541-0.409-10.07,1.358-15.133c-6.605,0.549-12.68,15.659-11.768,21.89
			c3.137,21.433,27.681,34.056,27.681,34.056l7.312-7.472C85.102,163.897,72.575,152.386,68.724,136.638z"/>
		<path fill="#E5DCBE" d="M73.758,118.148l16.957,13.069l5.916-11.628c-2.938-1.474-6.981-2.761-10.628-3.705
			C82.971,115.1,77.943,116.548,73.758,118.148z"/>
		<path fill="#C85334" d="M109.455,71.076c0,0,7.523-17.889,0.146-21.702c-7.376-3.813-15.022,4.329-15.022,4.329
			s0.167-5.289-3.475-4.414C83.002,51.235,72.76,64.881,72.76,64.881c-8.828,1.097-3.114,16.618-3.114,16.618
			s-1.676,13.758,15.355,29.462l18.966-14.723C122.119,76.51,109.455,71.076,109.455,71.076z"/>
		<path fill="#B63C2A" d="M108.856,79.886c-3.238,1.88-4.593-3.234-4.593-3.234s-4.995,9.991-13.154,8.449
			s-6.073-20.835-6.073-20.835s-4.933-0.577-6.333-6.253c-3.473,3.579-5.943,6.869-5.943,6.869
			c-8.828,1.097-3.114,16.618-3.114,16.618s-1.676,13.758,15.355,29.462l18.966-14.723c9.524-10.352,10.561-16.763,9.398-20.523
			C111.957,77.479,110.438,78.967,108.856,79.886z"/>
		<polygon fill="#E2AD84" points="77.104,117.391 83.312,96.756 97.403,105.983 94.552,118.901 89.519,126.115 		"/>
		<path fill="#E5DCBE" d="M97.537,158.886l-5.59-5.875c0,0-9.381,2.843-12.129,10.992c-2.748,8.148-1.706,11.37-1.706,11.37
			l8.623,2.274L97.537,158.886z"/>
		<path fill="#F5ECD3" d="M91.947,153.011c0,0-6.1,1.854-9.902,6.846c1.67,1.374,3.709,2.592,6.024,3.512
			c2.042,0.813,4.083,1.303,6.017,1.512l3.451-5.994L91.947,153.011z"/>
		<path fill="#E2AD84" d="M88.988,178.619c14.012,4.831,33.825,0.165,33.825,0.165l0.924-4.406c0,0-19.95-11.643-26.674-16.061
			c-4.016-2.639-11.209,3.23-13.455,9.381C82.176,171.622,85.039,177.257,88.988,178.619z"/>
		<path fill="#F4E1BC" d="M171.608,245.776l7.798-5.967c0,0-7.074-0.113-8.924,1.238
			C168.633,242.398,171.608,245.776,171.608,245.776z"/>
		<path fill="#F4E1BC" d="M144.834,250.239l8.818-4.319c0,0-6.914-1.5-8.993-0.539C142.58,246.343,144.834,250.239,144.834,250.239z
			"/>
		<path fill="#D68A6A" d="M96.874,171.678c-3.949-1.362-7.687-4.793-6.254-8.718c0.666-1.822,1.771-3.614,3.095-5.174
			c-3.852,0.75-8.402,5.244-10.106,9.912c-1.433,3.924,1.431,9.559,5.38,10.921c14.012,4.831,32.19,0.592,32.19,0.592
			S106.686,175.061,96.874,171.678z"/>
		<path opacity="0.6" fill="#BE4543" d="M95.544,119.076c-0.058-0.026-0.116-0.051-0.174-0.077
			c-0.251-0.111-0.506-0.221-0.768-0.329l1.966-8.906c-2.682-4.31-6.455-8.153-11.254-10.479c-0.809-0.392-1.629-0.726-2.458-1.018
			l-5.616,18.669c-0.067,0.021-0.135,0.043-0.203,0.064c-0.023,0.008-0.047,0.016-0.071,0.023c-0.534,0.168-1.065,0.346-1.59,0.531
			c-0.012,0.004-0.024,0.008-0.036,0.013c-4.681,1.647-8.792,3.766-8.792,3.766c-2.075,3.031-3.873,6.035-5.452,9.006
			c6.926-7.556,12.042-4.287,14.885-1.16c10.578,11.635,17.751,9.737,23.252,3.37c1.714-1.984,2.382-5.296,2.062-9.123
			c-0.292-0.336-0.583-0.663-0.875-0.977C99.67,121.256,97.854,120.112,95.544,119.076z"/>
		<path fill="#E2AD84" d="M104.14,115.733c-10.152-0.225-19.897-3.868-20.866-5.652c-0.955-1.762-5.249-27.208-2.995-31.668
			c1.061-2.097,15.512-9.367,20.087-8.01C106.436,72.203,107.924,107.135,104.14,115.733z"/>
		<path fill="#B63C2A" d="M85.416,102.265c-0.017-18.555-3.463-25.086-3.463-25.086s-7.287-3.312-7.655-0.75
			c-0.368,2.562,6.536,26.017,6.536,26.017L85.416,102.265z"/>
		<path fill="#E2AD84" d="M81.362,91.726c-1.597-2.392-6.667,0.615-5.019,4.101c1.684,3.56,5.221,7.897,6.955,6.953
			C85.097,101.802,82.994,94.171,81.362,91.726z"/>
		<path fill="#C95B42" d="M80.804,94.057c-0.912-1.368-3.812,0.352-2.869,2.345c0.962,2.036,2.985,4.516,3.978,3.977
			C82.939,99.818,81.737,95.455,80.804,94.057z"/>
		<path fill="#E2AD84" d="M81.462,96.86c-0.647-0.971-2.705,0.25-2.036,1.664c0.683,1.444,2.118,3.204,2.822,2.821
			C82.977,100.949,82.124,97.853,81.462,96.86z"/>
		<path fill="#D2BD97" d="M156.847,139.82c-1.47-0.044-2.434-0.043-2.646,0.02c-1.439,0.43-17.72,50.409-17.72,50.409l2.977-0.203
			C143.115,178.907,153.411,147.774,156.847,139.82z"/>
		<path fill="#D68A6A" d="M132.625,178.88c-0.318,3.115-1.686,4.822-2.62,4.969c-0.936,0.148-3.59-1.649-3.859-2.727
			C125.877,180.044,132.906,176.132,132.625,178.88z"/>
		<path fill="#E2AD84" d="M132.075,176.899c-1.544,5.634-2.363,5.986-3.566,6.252s-4.433-1.205-4.614-2.188
			c-0.181-0.982,0.965-3.076,1.817-2.682c0.852,0.395,1.925,0.705,1.925,0.705L132.075,176.899z"/>
		<path fill="#E2AD84" d="M129.535,174.577c-0.983-2.643-12.665-5.186-19.892-2.082l0.227,0.358
			c2.154,3.415,5.839,5.573,9.873,5.745c2.221,0.096,4.548,0.782,6.306,1.34C129.368,180.993,130.519,177.22,129.535,174.577z"/>
		<path fill="#E2AD84" d="M129.396,177.452c-1.544,5.635-2.363,5.986-3.566,6.252s-4.433-1.205-4.614-2.188
			c-0.181-0.981,0.965-3.075,1.817-2.681c0.852,0.395,1.925,0.704,1.925,0.704L129.396,177.452z"/>
		<path fill="#E2AD84" d="M127.408,172.866c3.75,1.62,6.211,3.728,7.188,5.451c0.979,1.725,1.771,5.735,1.637,6.58
			c-0.134,0.844-2.61,1.366-2.842,0.164c-0.231-1.203-0.99-4.817-1.366-5.045c-0.377-0.229-3.981-2.823-4.178-2.839
			C127.652,177.161,127.408,172.866,127.408,172.866z"/>
		<g>
			<path fill="#4E3030" d="M100.997,89.534c-0.255-1.455-1.063-2.618-1.804-2.601c-0.738,0.015-1.14,1.208-0.892,2.669
				c0.25,1.468,1.062,2.655,1.81,2.634C100.863,92.218,101.259,91.004,100.997,89.534z"/>
			<path fill="#E2AD84" d="M95.228,87.035c0.851-0.798,6.425,11.777,6.302,13.985c-0.061,1.139-6.453-0.342-6.453-0.342
				S95.073,87.176,95.228,87.035z"/>
			<path fill="#D0765A" d="M95.639,87.247c1.301,2.006,5.646,11.627,5.52,13.447c-0.059,0.849-4.144,0.141-5.657-0.198
				c0.007,0.355,0.005,0.561,0.005,0.561s7.085,2.047,7.11,0.87C102.66,99.736,96.637,87.37,95.639,87.247z"/>
			<path fill="#4E3030" d="M92.104,89.593c-0.23-1.473-1.022-2.64-1.774-2.625c-0.76,0.01-1.194,1.213-0.976,2.686
				c0.217,1.486,1.018,2.684,1.784,2.667C91.901,92.299,92.33,91.072,92.104,89.593z"/>
			<path fill="#C23D2D" d="M92.733,83.145c-0.529,1.771-6.426,2.449-7.328,1.67c-0.902-0.776-1.57-1.625-0.598-2.335
				c0.968-0.707,5.652-2.906,6.743-2.384C92.643,80.618,92.973,82.334,92.733,83.145z"/>
			<path fill="#C23D2D" d="M97.01,82.956c0.443,1.578,6.301,2.147,6.883,1.261c0.578-0.885,0.996-1.795,0.304-2.287
				c-0.693-0.493-5.74-2.737-6.484-2.059C96.967,80.553,96.804,82.235,97.01,82.956z"/>
			<path fill="#532928" d="M101.251,104.26l-9.284,0.497c0,0,1.286,4.833,2.958,5.117c1.672,0.283,5.271-0.452,5.778-1.59
				C101.209,107.153,101.251,104.26,101.251,104.26z"/>
			<path fill="#FBF4E8" d="M100.93,106.133c0.076-1.537-0.073-1.673-0.073-1.673l-8.468,0.453c0,0-0.279-0.157,0.447,1.544
				L100.93,106.133z"/>
		</g>
	</g>
	<polygon fill="#EBC467" points="347.787,280.093 10.082,280.093 10.082,284.233 178.673,299.306 	"/>
</g>
</svg>
