<?xml version="1.0" encoding="iso-8859-1"?>
<!-- Generator: Adobe Illustrator 19.0.0, SVG Export Plug-In . SVG Version: 6.00 Build 0)  -->
<svg version="1.1" id="Capa_1" xmlns="http://www.w3.org/2000/svg" xmlns:xlink="http://www.w3.org/1999/xlink" x="0px" y="0px"
	 viewBox="0 0 483.317 483.317" style="enable-background:new 0 0 483.317 483.317;" xml:space="preserve">
<g>
	<g>
		<path d="M179.233,46.8c-73,0-132.5,59.5-132.5,132.6s59.4,132.6,132.5,132.6c73,0,132.5-59.5,132.5-132.6
			S252.233,46.8,179.233,46.8z M264.933,258.7v-32.5h-15.6v46.6c-7.2,5.4-15,10.1-23.4,13.8V156h-15.6v136c-7.5,2.1-15.3,3.4-23.4,4
			V171.6h-15.6V296c-8-0.5-15.9-1.9-23.4-4V124.8h-15.6v161.8c-8.4-3.7-16.2-8.3-23.4-13.8v-70h-15.6v55.9
			c-19.3-20.9-31.2-48.7-31.2-79.3c0-64.5,52.4-117,116.9-117s116.9,52.5,116.9,117C296.133,210,284.233,237.8,264.933,258.7z"/>
	</g>
</g>
<g>
	<g>
		<path d="M469.633,403.5l-108.5-108.6l-11,11l-24-24c20.3-29.1,32.3-64.4,32.3-102.5c0-98.9-80.4-179.4-179.2-179.4
			S0.033,80.5,0.033,179.4s80.4,179.4,179.2,179.4c38.3,0,73.8-12.1,102.9-32.7l23.9,23.9l-11,11l108.5,108.7
			c17.5,17.5,47.3,18.8,66.1,0C487.833,451.5,487.833,421.8,469.633,403.5z M179.233,343.2c-90.2,0-163.6-73.5-163.6-163.8
			s73.4-163.8,163.6-163.8s163.6,73.5,163.6,163.8C342.833,269.8,269.433,343.2,179.233,343.2z M294.533,316.6
			c8-6.7,15.3-14.1,22-22.1l22.5,22.5l-22,22.1L294.533,316.6z M317.033,361.1l44.1-44.1l92,92.1l-44.1,44.1L317.033,361.1z
			 M458.633,458.7c-9.9,9.9-25.9,11.4-37.7,4.7l42.5-42.5C470.333,432.8,468.833,448.4,458.633,458.7z"/>
	</g>
</g>
<g>
</g>
<g>
</g>
<g>
</g>
<g>
</g>
<g>
</g>
<g>
</g>
<g>
</g>
<g>
</g>
<g>
</g>
<g>
</g>
<g>
</g>
<g>
</g>
<g>
</g>
<g>
</g>
<g>
</g>
</svg>
